<svg width="44" height="46" viewBox="0 0 44 46" fill="none" xmlns="http://www.w3.org/2000/svg">
<g clip-path="url(#clip0)">
<path d="M43.0833 44.0834H0.916695C0.410695 44.0834 0 44.5126 0 45.0416C0 45.5706 0.410695 46 0.916695 46H43.0834C43.5894 46 44.0001 45.5706 44.0001 45.0416C44 44.5126 43.5893 44.0834 43.0833 44.0834Z" fill="#D0651A"/>
<path d="M8.24995 32.5834H2.74995C2.24395 32.5834 1.83325 33.0127 1.83325 33.5417V45.0417C1.83325 45.5706 2.24395 46 2.74995 46H8.24995C8.75595 46 9.16664 45.5706 9.16664 45.0416V33.5416C9.16664 33.0126 8.75595 32.5834 8.24995 32.5834ZM7.33325 44.0834H3.66664V34.5H7.33334V44.0834H7.33325Z" fill="#D0651A"/>
<path d="M19.2499 23H13.7499C13.2439 23 12.8333 23.4294 12.8333 23.9584V45.0417C12.8333 45.5707 13.2439 46.0001 13.7499 46.0001H19.2499C19.7559 46.0001 20.1666 45.5707 20.1666 45.0417V23.9584C20.1666 23.4294 19.7559 23 19.2499 23ZM18.3333 44.0834H14.6666V24.9166H18.3333V44.0834Z" fill="#D0651A"/>
<path d="M30.2501 26.8334H24.7501C24.2441 26.8334 23.8334 27.2627 23.8334 27.7917V45.0417C23.8334 45.5707 24.2441 46.0001 24.7501 46.0001H30.2501C30.7561 46.0001 31.1668 45.5707 31.1668 45.0417V27.7917C31.1668 27.2626 30.7561 26.8334 30.2501 26.8334ZM29.3334 44.0834H25.6667V28.75H29.3334V44.0834V44.0834Z" fill="#D0651A"/>
<path d="M41.2501 15.3334H35.7501C35.2441 15.3334 34.8334 15.7627 34.8334 16.2917V45.0417C34.8334 45.5707 35.2441 46.0001 35.7501 46.0001H41.2501C41.7561 46.0001 42.1668 45.5707 42.1668 45.0417V16.2917C42.1668 15.7626 41.7561 15.3334 41.2501 15.3334ZM40.3334 44.0834H36.6667V17.25H40.3334V44.0834V44.0834Z" fill="#D0651A"/>
<path d="M5.49995 17.25C3.47775 17.25 1.83325 18.9693 1.83325 21.0834C1.83325 23.1975 3.47775 24.9167 5.49995 24.9167C7.52214 24.9167 9.16664 23.1975 9.16664 21.0834C9.16664 18.9693 7.52214 17.25 5.49995 17.25ZM5.49995 23C4.48795 23 3.66664 22.1394 3.66664 21.0834C3.66664 20.0273 4.48795 19.1667 5.49995 19.1667C6.51195 19.1667 7.33325 20.0273 7.33325 21.0834C7.33325 22.1394 6.51195 23 5.49995 23Z" fill="#D0651A"/>
<path d="M16.4999 7.66663C14.4778 7.66663 12.8333 9.38588 12.8333 11.5C12.8333 13.6141 14.4778 15.3334 16.4999 15.3334C18.5221 15.3334 20.1666 13.6141 20.1666 11.5C20.1666 9.38588 18.5221 7.66663 16.4999 7.66663ZM16.4999 13.4166C15.4879 13.4166 14.6666 12.556 14.6666 11.5C14.6666 10.4439 15.4879 9.58335 16.4999 9.58335C17.5119 9.58335 18.3333 10.444 18.3333 11.5C18.3333 12.5561 17.5119 13.4166 16.4999 13.4166Z" fill="#D0651A"/>
<path d="M27.5001 11.5C25.4779 11.5 23.8334 13.2193 23.8334 15.3334C23.8334 17.4475 25.4779 19.1667 27.5001 19.1667C29.5223 19.1667 31.1668 17.4475 31.1668 15.3334C31.1668 13.2193 29.5223 11.5 27.5001 11.5ZM27.5001 17.25C26.4881 17.25 25.6668 16.3894 25.6668 15.3334C25.6668 14.2773 26.4881 13.4167 27.5001 13.4167C28.5121 13.4167 29.3334 14.2773 29.3334 15.3334C29.3334 16.3894 28.5121 17.25 27.5001 17.25Z" fill="#D0651A"/>
<path d="M38.5001 0C36.4779 0 34.8334 1.71925 34.8334 3.83336C34.8334 5.94748 36.4779 7.66673 38.5001 7.66673C40.5223 7.66673 42.1668 5.94748 42.1668 3.83336C42.1668 1.71925 40.5223 0 38.5001 0ZM38.5001 5.75C37.4881 5.75 36.6668 4.88939 36.6668 3.83336C36.6668 2.77725 37.4881 1.91673 38.5001 1.91673C39.5121 1.91673 40.3334 2.77734 40.3334 3.83336C40.3334 4.88939 39.5121 5.75 38.5001 5.75Z" fill="#D0651A"/>
<path d="M37.2057 5.1865C36.8482 4.81275 36.267 4.81275 35.9095 5.1865L28.7962 12.6231C28.4387 12.9969 28.4387 13.6045 28.7962 13.9782C28.9759 14.1641 29.2105 14.2581 29.4452 14.2581C29.678 14.2581 29.9127 14.1661 30.0924 13.9782L37.2057 6.54161C37.5632 6.16786 37.5632 5.56025 37.2057 5.1865Z" fill="#D0651A"/>
<path d="M25.2835 13.1215L19.3948 11.3659C18.9016 11.2164 18.4011 11.5154 18.2636 12.0252C18.1243 12.5351 18.4066 13.0641 18.8924 13.2098L24.7811 14.9654C24.8654 14.9903 24.9498 15.0018 25.0323 15.0018C25.432 15.0018 25.7986 14.7277 25.9141 14.306C26.0535 13.7981 25.7712 13.2672 25.2835 13.1215Z" fill="#D0651A"/>
<path d="M15.07 12.6941C14.7547 12.2801 14.179 12.213 13.783 12.5407L6.87131 18.3022C6.47531 18.6338 6.40931 19.2356 6.7265 19.6496C6.908 19.8873 7.1757 20.01 7.44331 20.01C7.64311 20.01 7.84481 19.941 8.0135 19.803L14.9252 14.0415C15.3212 13.7099 15.3872 13.1081 15.07 12.6941Z" fill="#D0651A"/>
</g>
<defs>
<clipPath id="clip0">
<rect width="44" height="46" fill="white"/>
</clipPath>
</defs>
</svg>
