<svg width="44" height="46" viewBox="0 0 44 46" fill="none" xmlns="http://www.w3.org/2000/svg">
<path d="M15.2515 17.9688H8.9375C8.75531 17.9688 8.58 18.0442 8.45144 18.1793L5.90288 20.8438H5.3735C5.08887 20.0093 4.33263 19.4062 3.4375 19.4062C2.30037 19.4062 1.375 20.3737 1.375 21.5625C1.375 22.7513 2.30037 23.7188 3.4375 23.7188C4.33263 23.7188 5.08887 23.1157 5.3735 22.2812H6.1875C6.36969 22.2812 6.545 22.2058 6.67356 22.0707L9.22212 19.4062H15.2515C15.5361 20.2407 16.2924 20.8438 17.1875 20.8438C17.71 20.8438 18.1816 20.6332 18.5453 20.2975L21.3469 21.9269C21.3283 22.0426 21.3125 22.1598 21.3125 22.2812C21.3125 23.4701 22.2379 24.4375 23.375 24.4375C24.5121 24.4375 25.4375 23.4701 25.4375 22.2812C25.4375 22.1598 25.4217 22.0426 25.4031 21.9269L28.2047 20.2975C28.5684 20.6332 29.04 20.8438 29.5625 20.8438C30.6996 20.8438 31.625 19.8763 31.625 18.6875C31.625 17.7517 31.0482 16.9611 30.25 16.6635V13.5233C31.0482 13.2257 31.625 12.4351 31.625 11.4993C31.625 10.3105 30.6996 9.34303 29.5625 9.34303C29.04 9.34303 28.5684 9.55362 28.2047 9.88928L25.4031 8.25987C25.4217 8.14487 25.4375 8.02772 25.4375 7.90625C25.4375 6.71744 24.5121 5.75 23.375 5.75C22.2379 5.75 21.3125 6.71744 21.3125 7.90625C21.3125 8.02772 21.3283 8.14488 21.3469 8.26059L18.5453 9.89C18.1816 9.55434 17.71 9.34375 17.1875 9.34375C16.2924 9.34375 15.5361 9.94678 15.2515 10.7812H9.22212L6.67356 8.11684C6.545 7.98172 6.36969 7.90625 6.1875 7.90625H5.3735C5.08887 7.07178 4.33263 6.46875 3.4375 6.46875C2.30037 6.46875 1.375 7.43619 1.375 8.625C1.375 9.81381 2.30037 10.7812 3.4375 10.7812C4.33263 10.7812 5.08887 10.1782 5.3735 9.34375H5.90288L8.45144 12.0082C8.58 12.1433 8.75531 12.2188 8.9375 12.2188H15.2515C15.4591 12.8275 15.9177 13.3069 16.5 13.524V14.375H5.3735C5.08887 13.5405 4.33263 12.9375 3.4375 12.9375C2.30037 12.9375 1.375 13.9049 1.375 15.0938C1.375 16.2826 2.30037 17.25 3.4375 17.25C4.33263 17.25 5.08887 16.647 5.3735 15.8125H16.5V16.6635C15.9177 16.8806 15.4591 17.36 15.2515 17.9688V17.9688ZM3.4375 22.2812C3.05869 22.2812 2.75 21.9585 2.75 21.5625C2.75 21.1665 3.05869 20.8438 3.4375 20.8438C3.81631 20.8438 4.125 21.1665 4.125 21.5625C4.125 21.9585 3.81631 22.2812 3.4375 22.2812ZM3.4375 9.34375C3.05869 9.34375 2.75 9.02103 2.75 8.625C2.75 8.22897 3.05869 7.90625 3.4375 7.90625C3.81631 7.90625 4.125 8.22897 4.125 8.625C4.125 9.02103 3.81631 9.34375 3.4375 9.34375ZM3.4375 15.8125C3.05869 15.8125 2.75 15.4898 2.75 15.0938C2.75 14.6977 3.05869 14.375 3.4375 14.375C3.81631 14.375 4.125 14.6977 4.125 15.0938C4.125 15.4898 3.81631 15.8125 3.4375 15.8125ZM17.1875 19.4062C16.8087 19.4062 16.5 19.0835 16.5 18.6875C16.5 18.2915 16.8087 17.9688 17.1875 17.9688C17.5663 17.9688 17.875 18.2915 17.875 18.6875C17.875 19.0835 17.5663 19.4062 17.1875 19.4062ZM18.5453 13.11L21.3469 14.7394C21.3283 14.8551 21.3125 14.9723 21.3125 15.0938C21.3125 15.2152 21.3283 15.3324 21.3469 15.4481L18.5453 17.0775C18.3501 16.8978 18.1246 16.7569 17.875 16.6635V13.5233C18.1246 13.4306 18.3508 13.2904 18.5453 13.11V13.11ZM28.2047 17.0775L25.4031 15.4481C25.4217 15.3324 25.4375 15.2152 25.4375 15.0938C25.4375 14.9723 25.4217 14.8551 25.4031 14.7394L28.2047 13.11C28.3999 13.2897 28.6254 13.4306 28.875 13.524V16.6642C28.6254 16.7569 28.3993 16.8971 28.2047 17.0775V17.0775ZM19.2156 18.3332L22.0172 16.7037C22.2124 16.8834 22.4379 17.0243 22.6875 17.1177V20.258C22.4379 20.3514 22.2118 20.4916 22.0172 20.672L19.2156 19.0426C19.2342 18.9261 19.25 18.809 19.25 18.6875C19.25 18.566 19.2342 18.4489 19.2156 18.3332V18.3332ZM23.375 14.375C23.7538 14.375 24.0625 14.6977 24.0625 15.0938C24.0625 15.4898 23.7538 15.8125 23.375 15.8125C22.9962 15.8125 22.6875 15.4898 22.6875 15.0938C22.6875 14.6977 22.9962 14.375 23.375 14.375ZM24.0625 17.1177C24.3121 17.0243 24.5382 16.8842 24.7328 16.7037L27.5344 18.3332C27.5158 18.4489 27.5 18.566 27.5 18.6875C27.5 18.809 27.5158 18.9261 27.5344 19.0418L24.7328 20.6713C24.5376 20.4916 24.3121 20.3507 24.0625 20.2573V17.1177ZM27.5344 11.8543L24.7328 13.4838C24.5376 13.3041 24.3121 13.1632 24.0625 13.0698V9.92953C24.3121 9.83609 24.5382 9.69594 24.7328 9.51553L27.5344 11.1449C27.5158 11.2614 27.5 11.3785 27.5 11.5C27.5 11.6215 27.5158 11.7386 27.5344 11.8543V11.8543ZM22.6875 13.0698C22.4379 13.1632 22.2118 13.3033 22.0172 13.4838L19.2156 11.8543C19.2342 11.7386 19.25 11.6215 19.25 11.5C19.25 11.3785 19.2342 11.2614 19.2156 11.1457L22.0172 9.51625C22.2124 9.69594 22.4379 9.83681 22.6875 9.93025V13.0698ZM23.375 23C22.9962 23 22.6875 22.6773 22.6875 22.2812C22.6875 21.8852 22.9962 21.5625 23.375 21.5625C23.7538 21.5625 24.0625 21.8852 24.0625 22.2812C24.0625 22.6773 23.7538 23 23.375 23ZM29.5625 19.4062C29.1837 19.4062 28.875 19.0835 28.875 18.6875C28.875 18.2915 29.1837 17.9688 29.5625 17.9688C29.9413 17.9688 30.25 18.2915 30.25 18.6875C30.25 19.0835 29.9413 19.4062 29.5625 19.4062ZM29.5625 10.7812C29.9413 10.7812 30.25 11.104 30.25 11.5C30.25 11.896 29.9413 12.2188 29.5625 12.2188C29.1837 12.2188 28.875 11.896 28.875 11.5C28.875 11.104 29.1837 10.7812 29.5625 10.7812ZM23.375 7.1875C23.7538 7.1875 24.0625 7.51022 24.0625 7.90625C24.0625 8.30228 23.7538 8.625 23.375 8.625C22.9962 8.625 22.6875 8.30228 22.6875 7.90625C22.6875 7.51022 22.9962 7.1875 23.375 7.1875ZM17.1875 10.7812C17.5663 10.7812 17.875 11.104 17.875 11.5C17.875 11.896 17.5663 12.2188 17.1875 12.2188C16.8087 12.2188 16.5 11.896 16.5 11.5C16.5 11.104 16.8087 10.7812 17.1875 10.7812Z" fill="#D0651A"/>
<path d="M15.8125 44.5625H26.8125C27.192 44.5625 27.5 44.2405 27.5 43.8437V38.8125H36.4375C36.817 38.8125 37.125 38.4905 37.125 38.0937V29.4687H41.9375C42.1561 29.4687 42.3617 29.3602 42.4916 29.1755C42.6216 28.9908 42.6594 28.7536 42.5941 28.5351L39.1662 17.0682C39.0287 12.7068 37.2673 8.68178 34.1928 5.7155C31.0826 2.71544 27.0298 1.20893 22.79 1.46625C17.9101 1.76453 13.3891 4.56406 10.6961 8.95562L11.8539 9.73115C14.3103 5.72556 18.4285 3.17256 22.8711 2.90087C26.7355 2.66297 30.4281 4.03937 33.2599 6.77206C36.1013 9.51265 37.7121 13.2466 37.796 17.2852C37.7988 17.4096 37.8338 17.5267 37.893 17.6281L41.0025 28.0312H36.4375C36.058 28.0312 35.75 28.3532 35.75 28.75V31.625H33.6875C32.5504 31.625 31.625 30.6576 31.625 29.4687H30.25C30.25 31.4503 31.7921 33.0625 33.6875 33.0625H35.75V37.375H26.8125C26.433 37.375 26.125 37.697 26.125 38.0937V43.125H16.5V42.43C16.5 36.6146 14.828 30.6683 11.6641 25.2339C10.9643 24.0321 10.4356 22.7348 10.0918 21.3785L8.76221 21.7465C9.13964 23.2365 9.72058 24.661 10.4892 25.9814C13.5218 31.1909 15.125 36.8783 15.125 42.43V43.8437C15.125 44.2405 15.433 44.5625 15.8125 44.5625V44.5625Z" fill="#D0651A"/>
</svg>
