<svg width="44" height="46" viewBox="0 0 44 46" fill="none" xmlns="http://www.w3.org/2000/svg">
<path d="M21.9232 5.84523C22.4012 5.84523 22.7887 5.44013 22.7887 4.94042V0.904816C22.7887 0.405105 22.4012 0 21.9232 0C21.4452 0 21.0577 0.405105 21.0577 0.904816V4.94042C21.0578 5.44013 21.4453 5.84523 21.9232 5.84523Z" fill="#F69921"/>
<path d="M43.0787 31.0846L41.5498 29.4907C41.0059 28.9228 40.281 28.6099 39.5086 28.6099C39.0147 28.6099 38.5406 28.7384 38.1205 28.9791L35.2393 25.9706L35.3797 25.8241C36.5485 24.5997 36.5481 22.6101 35.3796 21.3898C34.962 20.9525 34.441 20.6608 33.873 20.5381C33.9512 20.2559 33.9924 19.9603 33.9924 19.6578C33.9924 18.8173 33.6801 18.0292 33.1148 17.4407C32.6971 17.0033 32.1762 16.7117 31.6082 16.5889C31.6864 16.3067 31.7276 16.0112 31.7276 15.7087C31.7276 14.8681 31.4153 14.0801 30.849 13.4906C30.4214 13.0441 29.8957 12.7614 29.3437 12.6411C29.639 11.5767 29.3867 10.3792 28.5858 9.54043C27.9191 8.84639 27.0144 8.54811 26.1426 8.64478L20.4333 7.51499C19.5626 7.34231 18.4752 7.22812 17.7888 7.88263C17.7455 7.92396 17.7014 7.97149 17.6579 8.02441C16.5936 7.61885 15.3523 7.86035 14.5001 8.75035C13.9347 9.34071 13.6233 10.1285 13.6233 10.9685C13.6233 11.2711 13.6643 11.5666 13.7424 11.8489C13.175 11.9715 12.6547 12.2628 12.2385 12.6987C11.672 13.2885 11.3596 14.0754 11.359 14.9144C11.3587 15.2177 11.3999 15.5142 11.4785 15.7972C10.9108 15.9196 10.3901 16.2103 9.97266 16.6463C9.40616 17.2379 9.0942 18.0261 9.0942 18.8657C9.0942 19.5088 9.27785 20.1214 9.61817 20.6389C9.18848 20.7912 8.79488 21.0447 8.46531 21.3888C7.2957 22.6101 7.29528 24.5998 8.46609 25.826L8.60591 25.9715L5.72442 28.9785C4.65356 28.4514 3.33416 28.6489 2.45046 29.5715L0.920603 31.1665C0.376446 31.7346 0.0768682 32.4925 0.0767822 33.3005C0.0767822 34.1086 0.376446 34.8666 0.920603 35.4348L2.82988 37.4285C3.16804 37.7816 3.71606 37.7813 4.0538 37.4278C4.39162 37.0742 4.39127 36.5013 4.05311 36.1482L2.14384 34.1546C1.9271 33.9282 1.80774 33.6249 1.80774 33.3006C1.80774 32.9764 1.9271 32.6731 2.14332 32.4474L3.67327 30.8524C4.05552 30.4532 4.64058 30.3937 5.08488 30.6714C5.11616 30.7206 5.15234 30.7673 5.19376 30.8107C5.26792 30.8884 5.35257 30.948 5.44246 30.9915L14.2161 40.1505C14.2578 40.2454 14.315 40.3348 14.3897 40.413C14.4624 40.4891 14.5453 40.5479 14.6333 40.5912C14.8188 40.8105 14.9214 41.0907 14.9214 41.3895C14.9214 41.7138 14.802 42.0171 14.5853 42.2434L13.0569 43.8394C12.6053 44.3094 11.8707 44.3093 11.4204 43.8408L9.51117 41.8446C9.17318 41.4912 8.62524 41.4912 8.28725 41.8446C7.94926 42.1979 7.94926 42.7708 8.28725 43.1241L10.1979 45.1218C10.7603 45.7073 11.4988 45.9999 12.2377 45.9999C12.9768 45.9999 13.7162 45.7069 14.2792 45.1208L15.8086 43.5238C16.3527 42.9556 16.6524 42.1976 16.6524 41.3895C16.6524 40.8128 16.499 40.2621 16.2138 39.7871L19.4567 36.4009C19.4602 36.3972 19.4636 36.3936 19.4671 36.3899C19.8385 35.9885 20.8725 36.0637 21.8726 36.1362C22.5831 36.1879 23.3753 36.2453 24.1493 36.1521L27.7005 39.8604C27.4705 40.2989 27.3477 40.7939 27.3477 41.3095C27.3477 42.1167 27.6473 42.8742 28.1915 43.4424L29.7209 45.0394C30.2647 45.6073 30.9896 45.9201 31.762 45.9201C32.5343 45.9201 33.2592 45.6074 33.8031 45.0394L43.0793 35.3533C43.6235 34.7852 43.9231 34.0273 43.9231 33.2192C43.923 32.4112 43.6234 31.6533 43.0787 31.0846ZM20.1111 9.293L23.8654 10.0359L21.6182 12.3843C21.2706 12.2097 20.7942 11.8839 20.2715 11.3612C19.5561 10.6457 19.0443 9.81958 18.9977 9.30432C18.9976 9.30405 18.9976 9.30378 18.9976 9.30351C18.9976 9.30342 18.9976 9.30333 18.9976 9.30324C18.9942 9.26623 18.9933 9.23667 18.9938 9.21412C19.107 9.18537 19.4076 9.15347 20.1111 9.293ZM15.7233 10.0307C16.1617 9.57278 16.8428 9.51995 17.3383 9.8707C17.619 11.1014 18.6232 12.2168 19.075 12.6687C19.4098 13.0036 20.4841 14.0078 21.5685 14.2838C21.7152 14.5037 21.795 14.7657 21.795 15.0423C21.795 15.3985 21.6639 15.7316 21.4251 15.981C21.187 16.2304 20.8679 16.3677 20.5266 16.3677C20.1851 16.3677 19.866 16.2304 19.6268 15.9798L19.6267 15.9797L19.6263 15.9793L15.7232 11.9061C15.4852 11.6577 15.3542 11.3246 15.3542 10.9685C15.3542 10.6123 15.4853 10.2792 15.7233 10.0307ZM13.4617 13.9791C13.6999 13.7298 14.0186 13.5924 14.3594 13.5924C14.7007 13.5924 15.0205 13.73 15.2601 13.9803L18.403 17.2595C18.898 17.7778 18.898 18.621 18.4048 19.1375C18.1653 19.3868 17.8451 19.524 17.5032 19.524C17.1612 19.524 16.841 19.3868 16.6027 19.1385L16.6026 19.1384L14.2182 16.6463C14.2145 16.6424 14.2105 16.6388 14.2067 16.6349L13.4608 15.8554C13.2214 15.6054 13.0897 15.2717 13.09 14.9158C13.0903 14.561 13.2216 14.229 13.4617 13.9791ZM11.1959 17.9266C11.4342 17.6779 11.7536 17.5408 12.0955 17.5408C12.4345 17.5408 12.7512 17.6759 12.9885 17.9203L15.3801 20.4195C15.6186 20.6678 15.75 21.0005 15.75 21.3563C15.75 21.712 15.6186 22.0447 15.3792 22.294C15.1409 22.5427 14.8219 22.6797 14.4806 22.6797C14.1388 22.6797 13.8187 22.5423 13.5801 22.294L12.7131 21.3887C12.7129 21.3884 12.7127 21.3882 12.7125 21.388L11.196 19.8045C10.9569 19.5548 10.8252 19.2213 10.8252 18.8655C10.8252 18.5098 10.9569 18.1762 11.1959 17.9266ZM9.68855 22.6691C9.92788 22.4192 10.2477 22.2815 10.5892 22.2815C10.9305 22.2815 11.2503 22.4191 11.4895 22.6688L12.3578 23.5755C12.5963 23.8238 12.7276 24.1565 12.7276 24.5123C12.7276 24.868 12.5962 25.2006 12.356 25.451C12.1178 25.7003 11.7987 25.8376 11.4574 25.8376C11.116 25.8376 10.7969 25.7004 10.557 25.4492L10.4483 25.336C10.4469 25.3344 10.4457 25.3328 10.4444 25.3314C10.4427 25.3298 10.441 25.3283 10.4394 25.3267L9.68941 24.5457C9.19449 24.0272 9.19406 23.1855 9.68855 22.6691ZM27.3258 32.9525C26.988 32.5988 26.44 32.5986 26.1019 32.9516L25.3319 33.7557C24.6003 34.5206 23.2745 34.4243 21.9924 34.3313C20.6001 34.2301 19.1604 34.1257 18.2288 35.1257L15.0409 38.4544L7.06909 30.1324L9.89024 27.1884C10.3565 27.4872 10.8946 27.6474 11.4576 27.6474C12.2619 27.6474 13.016 27.3214 13.5794 26.7314C14.1465 26.141 14.4589 25.3529 14.4589 24.5124C14.4589 24.5045 14.4583 24.4968 14.4583 24.489C14.4658 24.4891 14.4733 24.4895 14.4808 24.4895C15.2839 24.4895 16.0375 24.1646 16.6016 23.5756C17.1687 22.9851 17.4811 22.197 17.4811 21.3565C17.4811 21.3487 17.4806 21.341 17.4806 21.3331C17.4882 21.3331 17.4957 21.3337 17.5034 21.3337C18.3063 21.3337 19.0603 21.0091 19.6282 20.4178C20.2177 19.8005 20.5093 18.9878 20.5037 18.1768C20.5114 18.1768 20.5192 18.1773 20.5269 18.1773C21.3312 18.1772 22.0853 17.8513 22.6495 17.2604C23.2149 16.6701 23.5263 15.8823 23.5263 15.0423C23.5263 14.4548 23.3735 13.8932 23.0886 13.4067L25.5613 10.8227C25.7455 10.6309 25.9728 10.5105 26.2109 10.4608C26.2367 10.4579 26.2621 10.4536 26.2873 10.4484C26.6694 10.3933 27.0706 10.5166 27.3628 10.8208C27.8577 11.3391 27.8577 12.1824 27.3646 12.6988L26.6115 13.4829C26.609 13.4855 26.6064 13.4878 26.6039 13.4904L25.7365 14.3957C25.3983 14.7488 25.3979 15.3217 25.7357 15.6752C26.0737 16.0289 26.6216 16.0291 26.9597 15.676L27.7157 14.8867C27.7159 14.8865 27.7161 14.8863 27.7163 14.8861L27.8306 14.7671C28.3268 14.253 29.1309 14.2541 29.6267 14.7717C29.8652 15.02 29.9966 15.3527 29.9966 15.7085C29.9966 16.0642 29.8652 16.3969 29.6248 16.6472L28.8674 17.4406C28.8673 17.4407 28.8672 17.4408 28.8671 17.4409L27.9999 18.344C27.6612 18.6966 27.6601 19.2695 27.9974 19.6235C28.3347 19.9776 28.8826 19.9787 29.2213 19.6261L30.0925 18.719C30.3307 18.4696 30.6497 18.3323 30.9911 18.3323C31.3325 18.3323 31.6517 18.4696 31.8915 18.7208C32.1301 18.9692 32.2614 19.3019 32.2614 19.6576C32.2614 20.0133 32.1301 20.346 31.8902 20.5958L30.3802 22.175C30.0423 22.5284 30.0424 23.1013 30.3804 23.4545C30.5494 23.6312 30.7708 23.7194 30.9923 23.7194C31.2138 23.7194 31.4354 23.631 31.6043 23.4543L32.3443 22.6803C32.3485 22.6761 32.3531 22.6724 32.3573 22.668C32.5954 22.4186 32.9145 22.2814 33.2559 22.2814C33.5973 22.2814 33.9164 22.4186 34.1554 22.6689C34.6498 23.1853 34.6494 24.0271 34.1554 24.5444L33.403 25.3301C33.4027 25.3304 33.4024 25.3307 33.4021 25.3309C33.4019 25.3312 33.4016 25.3315 33.4014 25.3318L32.2072 26.5788C31.869 26.9319 31.8687 27.5049 32.2064 27.8584C32.3754 28.0353 32.5972 28.1238 32.8188 28.1238C33.0401 28.1238 33.2615 28.0356 33.4304 27.8592L34.0145 27.2493L36.8141 30.1727L28.843 38.496L25.9869 35.5137C26.1861 35.3799 26.3766 35.2224 26.5554 35.0355L27.325 34.2319C27.6633 33.8789 27.6637 33.306 27.3258 32.9525ZM41.856 34.073L32.5798 43.759C32.3628 43.9856 32.0723 44.1104 31.7619 44.1104C31.4515 44.1104 31.1611 43.9856 30.944 43.759L29.4146 42.162C29.1978 41.9358 29.0785 41.633 29.0785 41.3095C29.0785 40.986 29.1978 40.6832 29.4146 40.4569L38.6907 30.7709C38.9078 30.5442 39.1982 30.4194 39.5087 30.4194C39.8191 30.4194 40.1096 30.5442 40.3272 30.7714L41.8561 32.3653C42.0728 32.5916 42.1922 32.8948 42.1922 33.2191C42.1921 33.5435 42.0727 33.8468 41.856 34.073Z" fill="#F69921"/>
<path d="M10.4309 5.08243C10.5999 5.25871 10.8211 5.34675 11.0423 5.34675C11.264 5.34675 11.4858 5.25817 11.6548 5.08109C11.9925 4.72737 11.992 4.15453 11.6536 3.80153L8.49989 0.511004C8.16164 0.158008 7.61361 0.158457 7.27596 0.512262C6.93832 0.865976 6.93883 1.43882 7.27717 1.79182L10.4309 5.08243Z" fill="#F69921"/>
<path d="M32.8042 5.34678C33.0255 5.34678 33.2468 5.25855 33.4158 5.08219L36.5671 1.79157C36.9053 1.43849 36.9056 0.865554 36.5678 0.512019C36.2301 0.158484 35.6821 0.158125 35.3439 0.5113L32.1926 3.80192C31.8544 4.155 31.854 4.72794 32.1919 5.08147C32.3609 5.25837 32.5825 5.34678 32.8042 5.34678Z" fill="#F69921"/>
<path d="M5.39843 38.9207C5.06336 39.277 5.068 39.85 5.40891 40.2003L5.41141 40.2028C5.57959 40.3756 5.79795 40.4617 6.01623 40.4617C6.24027 40.4617 6.46431 40.3711 6.63404 40.1906C6.96911 39.8342 6.96318 39.26 6.62235 38.9097C6.28161 38.5594 5.73367 38.5644 5.39843 38.9207Z" fill="#F69921"/>
<path d="M29.4427 31.649C29.5744 31.649 29.7079 31.6177 29.8333 31.5516C30.2601 31.3266 30.4315 30.7825 30.2164 30.3363C30.0011 29.8902 29.4806 29.7108 29.0539 29.9359L29.0491 29.9384C28.6223 30.1635 28.4533 30.7063 28.6685 31.1525C28.8204 31.4676 29.126 31.649 29.4427 31.649Z" fill="#F69921"/>
</svg>
