<svg width="44" height="46" viewBox="0 0 44 46" fill="none" xmlns="http://www.w3.org/2000/svg">
<path d="M38.8197 21.3163C37.3225 20.5338 34.5154 20.5247 34.3966 20.5247C34.0407 20.5247 33.7521 20.8264 33.7521 21.1985C33.7521 21.5707 34.0407 21.8724 34.3966 21.8724C35.121 21.8725 37.2241 21.9891 38.2433 22.5218C38.3358 22.5702 38.4341 22.593 38.531 22.593C38.7674 22.593 38.995 22.4564 39.108 22.2204C39.2672 21.8876 39.1381 21.4828 38.8197 21.3163Z" fill="#F69921"/>
<path d="M42.0331 30.9099L39.3711 30.1148C39.2562 30.0805 39.176 29.9693 39.176 29.8443V28.9154C39.3925 28.7585 39.5991 28.583 39.7922 28.387C40.7281 27.4375 41.2435 26.164 41.2435 24.8009V23.5191L41.5009 22.981C41.7833 22.3903 41.9326 21.729 41.9326 21.0686V17.5962C41.9326 17.224 41.644 16.9223 41.2881 16.9223H35.0857C32.8304 16.9223 30.9954 18.8407 30.9954 21.1985V21.2387C30.9954 21.7878 31.1196 22.3378 31.3545 22.8288L31.6846 23.519V24.6196C31.6846 26.3638 32.5067 27.9288 33.752 28.8706L33.7522 29.8441C33.7522 29.9942 33.7522 30.0564 33.22 30.2154L31.9211 30.6034L28.1639 29.175C28.1774 28.9897 28.1175 28.8012 27.9882 28.6592L26.7876 27.3404V25.1267C26.9145 25.0173 27.0396 24.905 27.1609 24.7863C28.6755 23.302 29.5442 21.2065 29.5442 19.0371V17.2691C30.0016 16.2286 30.2333 15.1276 30.2333 13.9937V6.78912C30.2333 6.41699 29.9447 6.1153 29.5888 6.1153H19.9407C16.5453 6.1153 13.783 9.00323 13.783 12.5529V13.9939C13.783 15.1278 14.0148 16.2288 14.4721 17.2693V18.7904C14.4721 21.3093 15.5434 23.5786 17.2287 25.0747V27.3405L16.0281 28.6592C15.8988 28.8013 15.839 28.9898 15.8525 29.1751L11.8869 30.6826C11.5995 30.7919 11.3325 30.9398 11.0901 31.1191L10.4674 30.7936C12.321 29.95 12.9082 28.7636 12.9364 28.7047C13.0272 28.515 13.0272 28.2917 12.9364 28.102C12.4718 27.1305 12.4155 25.3497 12.3703 23.9188C12.3552 23.4425 12.341 22.9924 12.3137 22.5917C12.094 19.3597 9.74377 16.9223 6.84681 16.9223C3.94986 16.9223 1.59955 19.3596 1.3799 22.5917C1.35266 22.9925 1.33839 23.4426 1.32335 23.919C1.27815 25.3498 1.22177 27.1304 0.757195 28.1019C0.666445 28.2916 0.666445 28.515 0.757195 28.7046C0.785383 28.7636 1.37139 29.9475 3.22876 30.792L1.49909 31.6961C0.574406 32.1799 0 33.1515 0 34.2323V39.2104C0 39.5825 0.288578 39.8842 0.644531 39.8842C1.00048 39.8842 1.28906 39.5825 1.28906 39.2104V34.2323C1.28906 33.6652 1.59045 33.1553 2.07556 32.9017L4.22941 31.7758L4.97862 32.5202C5.50249 33.0407 6.17452 33.3008 6.84681 33.3008C7.51893 33.3008 8.1913 33.0405 8.71501 32.5202L9.46412 31.7759L10.1664 32.143C9.83572 32.6962 9.64803 33.3449 9.64803 34.0244V39.2106C9.64803 39.5827 9.93661 39.8844 10.2926 39.8844C10.6485 39.8844 10.9371 39.5827 10.9371 39.2106V34.0244C10.9371 33.0993 11.4958 32.2654 12.3274 31.9492L16.5084 30.3598L18.2489 33.0894C18.4714 33.4383 18.828 33.6621 19.2271 33.7034C19.2717 33.708 19.3159 33.7103 19.3601 33.7103C19.7123 33.7103 20.0496 33.5653 20.3017 33.3018L21.3635 32.1917V39.2107C21.3635 39.5828 21.6521 39.8845 22.0081 39.8845C22.364 39.8845 22.6526 39.5828 22.6526 39.2107V32.1917L23.7145 33.3018C23.9665 33.5654 24.3038 33.7104 24.6561 33.7104C24.7002 33.7104 24.7445 33.7081 24.7889 33.7035C25.1882 33.6622 25.5448 33.4384 25.7672 33.0894L27.5078 30.36L31.6888 31.9494C32.5203 32.2656 33.0791 33.0995 33.0791 34.0245V39.2108C33.0791 39.5829 33.3676 39.8846 33.7236 39.8846C34.0795 39.8846 34.3681 39.5829 34.3681 39.2108V34.0245C34.3681 33.0876 34.0121 32.209 33.4148 31.5591L33.5741 31.5116C33.7347 31.4636 33.9538 31.398 34.1738 31.2852L35.8194 33.0056V39.2108C35.8194 39.5829 36.108 39.8846 36.464 39.8846C36.8199 39.8846 37.1085 39.5829 37.1085 39.2108V33.0056L38.7427 31.2971C38.8296 31.3433 38.9208 31.3823 39.0169 31.411L41.6789 32.2061C42.2865 32.3876 42.7109 32.9758 42.7109 33.6365V39.2108C42.7109 39.5829 42.9995 39.8846 43.3555 39.8846C43.7114 39.8846 44 39.5829 44 39.2108V33.6365C44 32.3771 43.1912 31.2559 42.0331 30.9099ZM4.13488 29.7198C2.92927 29.2662 2.32452 28.6616 2.06637 28.3314C2.24237 27.8504 2.35649 27.2995 2.43375 26.7179C2.78919 27.6089 3.38448 28.3695 4.13488 28.9122V29.7198ZM7.82719 31.5434C7.27745 32.0895 6.41627 32.0894 5.8667 31.5433L5.26728 30.9478C5.36843 30.7497 5.42403 30.5251 5.42403 30.2898V29.5716C5.87366 29.7185 6.35164 29.7977 6.84698 29.7977C7.34173 29.7977 7.81945 29.7181 8.26985 29.5721L8.26977 30.2897C8.26977 30.5251 8.32528 30.7498 8.42652 30.948L7.82719 31.5434ZM6.84716 28.4501C4.9225 28.4501 3.3568 26.8131 3.3568 24.8011C3.3568 24.429 3.06823 24.1273 2.71227 24.1273C2.67618 24.1273 2.64095 24.1311 2.60648 24.1371C2.60837 24.0792 2.61018 24.0212 2.61207 23.9637C2.62642 23.5004 2.64026 23.0628 2.66578 22.6874C2.74811 21.4767 3.21088 20.361 3.96885 19.5458C4.73361 18.7232 5.75575 18.2702 6.84698 18.2702C7.93822 18.2702 8.96027 18.7232 9.72512 19.5458C10.4831 20.361 10.9459 21.4767 11.0282 22.6874C11.0536 23.0627 11.0675 23.5002 11.0822 23.9635C11.0834 24.0033 11.0847 24.0436 11.086 24.0837C10.3848 22.9542 9.30179 22.1218 7.90247 21.6517C6.60971 21.2175 5.49785 21.2444 5.45093 21.2456C5.28215 21.2506 5.12196 21.3244 5.00483 21.4514L3.84192 22.7123C3.59485 22.9802 3.60224 23.4068 3.85851 23.6651C4.11477 23.9234 4.5228 23.9156 4.76988 23.6478L5.73753 22.5987C6.57087 22.6412 9.25186 22.9672 10.2945 25.3675C10.0322 27.1364 8.57794 28.4501 6.84716 28.4501ZM9.55874 29.722L9.55883 28.9184C10.3086 28.3787 10.9048 27.6195 11.2605 26.7218C11.3377 27.302 11.4518 27.8516 11.6274 28.3316C11.3707 28.6586 10.7632 29.2687 9.55874 29.722ZM15.7612 18.7904V17.1185C15.7612 17.0171 15.7393 16.9169 15.6971 16.8256C15.2824 15.9277 15.0721 14.975 15.0721 13.9939V12.553C15.0721 9.74633 17.2562 7.46304 19.9407 7.46304H28.9443V13.994C28.9443 14.9751 28.734 15.9278 28.3192 16.8257C28.277 16.917 28.2551 17.0172 28.2551 17.1186V19.0373C28.2551 20.8621 27.5535 22.5546 26.2793 23.8032C26.1203 23.959 25.9552 24.1051 25.7845 24.2412C25.7807 24.2439 25.7771 24.2468 25.7734 24.2496C24.5798 25.197 23.1179 25.6575 21.5911 25.5541C18.322 25.3328 15.7612 22.3618 15.7612 18.7904ZM19.3903 32.3488C19.3858 32.3534 19.3754 32.3645 19.3543 32.3622C19.3334 32.36 19.3251 32.3472 19.3216 32.3416L17.3171 29.1981L17.9621 28.4895L21.003 30.6626L19.3903 32.3488ZM22.0082 29.7484L18.5178 27.2542V25.9964C19.4209 26.5068 20.4322 26.826 21.5077 26.8988C21.6776 26.9103 21.8464 26.9159 22.0148 26.9159C23.2472 26.9159 24.4333 26.6079 25.4985 26.0233V27.2542L22.0082 29.7484ZM24.6947 32.3418C24.6912 32.3473 24.683 32.3602 24.662 32.3623C24.6409 32.3651 24.6306 32.3535 24.6261 32.3489L23.0133 30.6628L26.0542 28.4897L26.6993 29.1983L24.6947 32.3418ZM36.464 31.7732L35.0013 30.2442C35.0268 30.123 35.0413 29.9903 35.0412 29.8439L35.0411 29.5596C35.447 29.6988 35.8748 29.7815 36.3174 29.7953C36.3671 29.7969 36.4164 29.7977 36.4659 29.7977C36.955 29.7977 37.4325 29.7204 37.8869 29.573V29.8443C37.8869 29.9787 37.9031 30.1104 37.9335 30.237L36.464 31.7732ZM38.8945 27.4199C38.2114 28.113 37.309 28.479 36.3562 28.4483C34.491 28.3898 32.9736 26.6723 32.9736 24.6198V23.3601C32.9736 23.2554 32.9503 23.1523 32.9056 23.0587L32.5074 22.2263C32.3616 21.9212 32.2845 21.5798 32.2845 21.2388V21.1986C32.2845 19.5838 33.5411 18.2701 35.0857 18.2701H40.6435V21.0687C40.6435 21.521 40.5413 21.9739 40.3478 22.3784L40.0225 23.0587C39.9777 23.1524 39.9544 23.2554 39.9544 23.3601V24.801C39.9544 25.7965 39.578 26.7265 38.8945 27.4199Z" fill="#F69921"/>
<path d="M40.5989 34.2138C40.2429 34.2138 39.9543 34.5155 39.9543 34.8876V39.2105C39.9543 39.5826 40.2429 39.8843 40.5989 39.8843C40.9548 39.8843 41.2434 39.5826 41.2434 39.2105V34.8876C41.2434 34.5156 40.9548 34.2138 40.5989 34.2138Z" fill="#F69921"/>
<path d="M3.40112 35.1044C3.04517 35.1044 2.75659 35.4061 2.75659 35.7783V39.2104C2.75659 39.5825 3.04517 39.8842 3.40112 39.8842C3.75708 39.8842 4.04565 39.5825 4.04565 39.2104V35.7783C4.04565 35.4062 3.75708 35.1044 3.40112 35.1044Z" fill="#F69921"/>
<path d="M27.2879 14.238C24.8502 11.6895 19.7498 12.1767 17.67 12.5044C17.0149 12.6077 16.5396 13.1873 16.5396 13.8826V15.4349C16.5396 15.807 16.828 16.1087 17.184 16.1087C17.5399 16.1087 17.8286 15.807 17.8286 15.4349V13.8825C17.8286 13.8596 17.8431 13.84 17.8623 13.8369C18.6931 13.706 20.3416 13.504 22.0496 13.6231C24.0595 13.763 25.5152 14.2904 26.3764 15.1909C26.6281 15.454 27.0363 15.454 27.2879 15.1909C27.5396 14.9277 27.5396 14.501 27.2879 14.238Z" fill="#F69921"/>
<path d="M14.4275 35.6547C14.0715 35.6547 13.783 35.9564 13.783 36.3286V39.2105C13.783 39.5826 14.0715 39.8843 14.4275 39.8843C14.7834 39.8843 15.072 39.5826 15.072 39.2105V36.3286C15.072 35.9565 14.7834 35.6547 14.4275 35.6547Z" fill="#F69921"/>
<path d="M29.5889 35.6547C29.2329 35.6547 28.9443 35.9564 28.9443 36.3286V39.2105C28.9443 39.5826 29.2329 39.8843 29.5889 39.8843C29.9448 39.8843 30.2334 39.5826 30.2334 39.2105V36.3286C30.2334 35.9565 29.9448 35.6547 29.5889 35.6547Z" fill="#F69921"/>
</svg>
