<svg width="44" height="46" viewBox="0 0 44 46" fill="none" xmlns="http://www.w3.org/2000/svg">
<path d="M42.7624 41.6875C42.7624 41.6156 42.7624 41.6156 42.7624 41.6875L40.0124 38.8844H41.2499C42.4874 38.8844 43.4499 37.8781 43.4499 36.5844V2.37187C43.4499 1.07812 42.4874 0.0718689 41.2499 0.0718689H2.74993C1.51243 0.0718689 0.549927 1.07812 0.549927 2.37187V7.18749V36.5125C0.549927 37.8062 1.51243 38.8125 2.74993 38.8125H25.7124C26.9499 39.6031 28.3249 39.9625 29.7687 39.9625C31.2812 39.9625 32.6562 39.5312 33.8937 38.7406L34.3062 39.1719C34.2374 39.3156 34.2374 39.3875 34.2374 39.5312C34.2374 39.7469 34.3062 39.9625 34.5124 40.1062L39.3249 44.9937C39.8062 45.4969 40.4249 45.7844 41.0437 45.7844C41.5937 45.7844 42.2124 45.5687 42.6937 45.1375C42.7624 45.0656 42.8312 44.9937 42.8999 44.85C43.6562 43.9875 43.5874 42.55 42.7624 41.6875ZM1.92493 2.37187C1.92493 1.86874 2.26868 1.50937 2.74993 1.50937H41.2499C41.7312 1.50937 42.0749 1.86874 42.0749 2.37187V6.54062H1.92493V2.37187ZM2.74993 37.4469C2.26868 37.4469 1.92493 37.0875 1.92493 36.5844V7.90624H42.0749V36.5125C42.0749 37.0156 41.7312 37.375 41.2499 37.375H38.6374L37.8812 36.6562C37.6062 36.3687 37.1937 36.3687 36.9187 36.6562L36.5062 36.225C36.7124 35.9375 36.8499 35.65 36.9874 35.3625H39.4624C39.8062 35.3625 40.1499 35.075 40.1499 34.6437V10.7094C40.1499 10.35 39.8749 9.99062 39.4624 9.99062H4.60618C4.26243 9.99062 3.91868 10.2781 3.91868 10.7094V34.5719C3.91868 34.9312 4.19368 35.2906 4.60618 35.2906H22.6874C23.0312 36.0812 23.5124 36.7281 24.0624 37.375H2.74993V37.4469ZM22.0687 33.925H5.22493V11.4281H38.7062V33.8531H37.4687C37.6749 33.1344 37.7437 32.4156 37.7437 31.625C37.7437 29.3969 36.9187 27.3125 35.4062 25.7312C33.8937 24.15 31.8999 23.2875 29.7687 23.2875C27.6374 23.2875 25.6437 24.15 24.1312 25.7312C22.6187 27.3125 21.7937 29.3969 21.7937 31.625C21.7937 32.4875 21.9312 33.2062 22.0687 33.925ZM34.4437 36.5844C33.2062 37.8781 31.5562 38.5969 29.7687 38.5969C27.9812 38.5969 26.3312 37.8781 25.0937 36.5844C24.4749 35.9375 23.9937 35.2187 23.6499 34.3562C23.3062 33.4937 23.1687 32.6312 23.1687 31.6969C23.1687 29.8281 23.8562 28.1031 25.0937 26.8094C26.3312 25.5156 27.9812 24.7969 29.7687 24.7969C31.5562 24.7969 33.2062 25.5156 34.4437 26.8094C35.6812 28.1031 36.3687 29.8281 36.3687 31.6969C36.3687 32.6312 36.2312 33.4937 35.8874 34.3562C35.8874 34.3562 35.8874 34.3562 35.8874 34.4281C35.5437 35.2187 35.0624 35.9375 34.4437 36.5844ZM35.0624 37.95C35.1999 37.8062 35.3374 37.7344 35.4749 37.5906C35.5437 37.5187 35.6124 37.4469 35.6812 37.375L35.9562 37.6625L35.3374 38.2375L35.0624 37.95ZM41.8687 44.0594C41.7999 44.1312 41.7999 44.1312 41.7312 44.2031C41.3187 44.5625 40.6999 44.5625 40.3562 44.1312L35.9562 39.6031L37.3999 38.0937L37.8812 38.5969L41.7999 42.6219C42.1437 43.0531 42.1437 43.6281 41.8687 44.0594Z" fill="#F69921"/>
<path d="M37.5375 3.30624H21.8625C21.5188 3.30624 21.175 3.59374 21.175 4.02499C21.175 4.45624 21.45 4.74374 21.8625 4.74374H37.5375C37.8813 4.74374 38.225 4.45624 38.225 4.02499C38.225 3.59374 37.8813 3.30624 37.5375 3.30624ZM16.5 3.30624H15.1938C14.85 3.30624 14.5063 3.59374 14.5063 4.02499C14.5063 4.45624 14.7813 4.74374 15.1938 4.74374H16.5C16.8438 4.74374 17.1875 4.45624 17.1875 4.02499C17.1875 3.59374 16.9125 3.30624 16.5 3.30624ZM12.1688 3.30624H10.8625C10.5188 3.30624 10.175 3.59374 10.175 4.02499C10.175 4.45624 10.45 4.74374 10.8625 4.74374H12.1688C12.5125 4.74374 12.8563 4.45624 12.8563 4.02499C12.8563 3.59374 12.5125 3.30624 12.1688 3.30624ZM7.76877 3.30624H6.46252C6.11877 3.30624 5.77502 3.59374 5.77502 4.02499C5.77502 4.45624 6.05002 4.74374 6.46252 4.74374H7.76877C8.11252 4.74374 8.45627 4.45624 8.45627 4.02499C8.45627 3.59374 8.18127 3.30624 7.76877 3.30624ZM18.7 15.4531H9.48752C9.14377 15.4531 8.80002 15.7406 8.80002 16.1719C8.80002 16.5312 9.07502 16.8906 9.48752 16.8906H18.7C19.0438 16.8906 19.3875 16.6031 19.3875 16.1719C19.3875 15.7406 19.0438 15.4531 18.7 15.4531ZM18.7 19.7656H9.48752C9.14377 19.7656 8.80002 20.0531 8.80002 20.4844C8.80002 20.8437 9.07502 21.2031 9.48752 21.2031H18.7C19.0438 21.2031 19.3875 20.9156 19.3875 20.4844C19.3875 20.125 19.0438 19.7656 18.7 19.7656ZM18.7 24.15H9.48752C9.14377 24.15 8.80002 24.4375 8.80002 24.8687C8.80002 25.3 9.07502 25.5875 9.48752 25.5875H18.7C19.0438 25.5875 19.3875 25.3 19.3875 24.8687C19.3875 24.4375 19.0438 24.15 18.7 24.15ZM18.7 28.5344H9.48752C9.14377 28.5344 8.80002 28.8219 8.80002 29.2531C8.80002 29.6125 9.07502 29.9719 9.48752 29.9719H18.7C19.0438 29.9719 19.3875 29.6844 19.3875 29.2531C19.3875 28.8219 19.0438 28.5344 18.7 28.5344ZM25.3 16.8187H34.5125C34.8563 16.8187 35.2 16.5312 35.2 16.1C35.2 15.6687 34.925 15.3812 34.5125 15.3812H25.3C24.9563 15.3812 24.6125 15.6687 24.6125 16.1C24.6125 16.5312 24.8875 16.8187 25.3 16.8187ZM25.3 21.2031H34.5125C34.8563 21.2031 35.2 20.9156 35.2 20.4844C35.2 20.0531 34.925 19.7656 34.5125 19.7656H25.3C24.9563 19.7656 24.6125 20.0531 24.6125 20.4844C24.6125 20.9156 24.8875 21.2031 25.3 21.2031ZM25.85 27.6C23.7188 29.8281 23.7188 33.5656 25.85 35.7937C26.95 36.9437 28.325 37.5187 29.7688 37.5187C31.2125 37.5187 32.5875 36.9437 33.6875 35.7937C35.8188 33.5656 35.8188 29.8281 33.6875 27.6C31.5563 25.3 28.05 25.3 25.85 27.6ZM32.725 34.7875C31.075 36.5125 28.4625 36.5125 26.8125 34.7875C25.1625 33.0625 25.1625 30.3312 26.8125 28.6062C27.6375 27.7437 28.6688 27.3125 29.7688 27.3125C30.8688 27.3125 31.9 27.7437 32.725 28.6062C34.375 30.3312 34.375 33.0625 32.725 34.7875Z" fill="#F69921"/>
</svg>
