<svg width="53" height="51" viewBox="0 0 53 51" fill="none" xmlns="http://www.w3.org/2000/svg">
<path fill-rule="evenodd" clip-rule="evenodd" d="M20.087 35.123C20.165 36.792 22.121 36.675 24.573 36.427C31.714 34.898 35.16 32.088 38.823 27.09C41.904 22.115 43.449 18.917 42.991 14.151C42.642 10.55 41.198 7.701 38.606 5C36.728 3.052 34.322 1.616 31.589 0.738998C42.153 6.715 43.224 19.972 34.779 28.689C34.19 29.232 23.743 36.722 20.087 35.123Z" fill="#AE6428"/>
<path fill-rule="evenodd" clip-rule="evenodd" d="M40.43 19.747C42.603 12.498 40.081 5.163 31.589 0.738998V8.454L39.048 15.509H33.537C33.157 20.096 28.523 19.739 28.523 15.556L22.958 15.44L30.471 8.447C30.479 6.53 30.471 2.657 30.471 0.739997C26.87 -0.0980029 22.865 0.506998 19.612 1.555C17.625 2.191 12.277 4.489 11.338 5.894C18.673 6.841 17.183 22.791 17.796 27.402C18.099 29.676 18.269 31.159 18.766 33.425C19.434 36.491 23.57 35.482 27.56 33.588C34.035 30.505 38.327 26.756 40.43 19.747Z" fill="#F69921"/>
<path fill-rule="evenodd" clip-rule="evenodd" d="M0.900024 25.724C1.08602 33.447 5.03702 40.673 13.086 46.145C17.169 48.924 21.166 50.406 26.133 50.833L26.071 46.168C21.833 46.781 17.099 45.462 14.646 41.977C13.295 40.06 13.187 38.694 13.132 36.42C13.078 33.742 13.171 30.11 12.627 26.827C11.649 20.765 10.058 16.178 6.23902 11.366C3.29902 15.742 1.61402 18.909 0.900024 25.724Z" fill="#EB3728"/>
<path fill-rule="evenodd" clip-rule="evenodd" d="M31.4971 33.99C38.5061 29.806 50.0401 25.825 50.7461 35.154C55.9701 27.33 50.1481 12.436 43.1631 6.552C39.7251 3.657 35.8131 1.833 31.5901 0.738998C35.2381 2.097 38.2651 4.154 40.1821 7.026C46.2281 16.099 39.7401 28.371 31.4971 33.99Z" fill="#066E81"/>
<path fill-rule="evenodd" clip-rule="evenodd" d="M39.049 30.482C45.305 29.939 49.271 47.348 29.176 46.176C29.176 47.728 29.176 49.281 29.176 50.833C37.683 49.49 44.303 46.114 48.425 40.005C50.233 37.319 52.453 32.825 49.55 30.101C47.036 27.75 41.82 29.186 39.049 30.482Z" fill="#EB3728"/>
</svg>
