<svg width="189" height="144" viewBox="0 0 189 144" fill="none" xmlns="http://www.w3.org/2000/svg">
<path d="M40.114 120.574L41.062 120.492C41.107 120.87 41.211 121.18 41.375 121.423C41.539 121.665 41.794 121.861 42.139 122.011C42.484 122.161 42.873 122.235 43.304 122.235C43.687 122.235 44.026 122.179 44.319 122.065C44.612 121.951 44.831 121.796 44.974 121.598C45.117 121.4 45.189 121.185 45.189 120.951C45.189 120.714 45.12 120.507 44.982 120.329C44.844 120.152 44.616 120.003 44.298 119.883C44.094 119.804 43.644 119.681 42.946 119.514C42.248 119.347 41.76 119.19 41.48 119.042C41.118 118.853 40.847 118.618 40.669 118.338C40.491 118.058 40.402 117.744 40.402 117.396C40.402 117.014 40.511 116.658 40.728 116.326C40.946 115.994 41.263 115.742 41.681 115.57C42.099 115.398 42.563 115.312 43.074 115.312C43.637 115.312 44.133 115.402 44.563 115.583C44.993 115.763 45.324 116.029 45.555 116.38C45.786 116.731 45.911 117.128 45.928 117.572L44.964 117.644C44.912 117.166 44.737 116.805 44.438 116.561C44.139 116.317 43.698 116.195 43.115 116.195C42.507 116.195 42.064 116.306 41.786 116.528C41.508 116.75 41.369 117.017 41.369 117.33C41.369 117.602 41.467 117.825 41.664 118.001C41.857 118.176 42.362 118.356 43.179 118.54C43.996 118.724 44.556 118.885 44.86 119.022C45.302 119.225 45.628 119.482 45.839 119.793C46.05 120.104 46.155 120.463 46.155 120.868C46.155 121.271 46.039 121.649 45.808 122.006C45.577 122.362 45.244 122.639 44.811 122.836C44.378 123.034 43.89 123.132 43.348 123.132C42.661 123.132 42.085 123.032 41.621 122.833C41.157 122.634 40.792 122.333 40.528 121.933C40.267 121.533 40.128 121.079 40.114 120.574Z" fill="white"/>
<path d="M47.024 119.321C47.024 118.066 47.3621 117.083 48.0391 116.373C48.7161 115.663 49.59 115.308 50.66 115.308C51.361 115.308 51.993 115.475 52.556 115.809C53.119 116.142 53.548 116.608 53.843 117.204C54.138 117.801 54.286 118.477 54.286 119.234C54.286 120.001 54.131 120.687 53.82 121.292C53.509 121.897 53.0691 122.355 52.4991 122.666C51.9291 122.977 51.315 123.133 50.655 123.133C49.94 123.133 49.301 122.961 48.739 122.617C48.176 122.273 47.75 121.804 47.46 121.209C47.17 120.613 47.024 119.984 47.024 119.321ZM48.0601 119.336C48.0601 120.247 48.306 120.965 48.798 121.489C49.29 122.013 49.9071 122.276 50.6501 122.276C51.4061 122.276 52.029 122.011 52.517 121.481C53.006 120.952 53.25 120.2 53.25 119.227C53.25 118.611 53.146 118.074 52.937 117.615C52.728 117.156 52.4221 116.8 52.0201 116.547C51.6181 116.294 51.1661 116.168 50.6651 116.168C49.9541 116.168 49.342 116.411 48.829 116.898C48.317 117.386 48.0601 118.198 48.0601 119.336Z" fill="white"/>
<path d="M55.402 123.003V115.441H56.407V122.11H60.147V123.002H55.402V123.003Z" fill="white"/>
<path d="M66.347 115.442H67.352V119.811C67.352 120.571 67.266 121.174 67.093 121.622C66.92 122.069 66.609 122.432 66.158 122.713C65.707 122.994 65.116 123.133 64.384 123.133C63.672 123.133 63.091 123.011 62.638 122.767C62.186 122.523 61.863 122.169 61.67 121.707C61.477 121.245 61.38 120.613 61.38 119.811V115.442H62.385V119.806C62.385 120.463 62.446 120.947 62.569 121.258C62.692 121.569 62.902 121.809 63.201 121.978C63.5 122.147 63.865 122.231 64.297 122.231C65.036 122.231 65.562 122.064 65.877 121.731C66.191 121.397 66.348 120.756 66.348 119.807V115.442H66.347Z" fill="white"/>
<path d="M70.787 123.003V116.334H68.285V115.442H74.304V116.334H71.792V123.003H70.787Z" fill="white"/>
<path d="M75.569 123.003V115.441H76.574V123.003H75.569Z" fill="white"/>
<path d="M77.902 119.321C77.902 118.066 78.24 117.083 78.917 116.373C79.594 115.663 80.467 115.308 81.538 115.308C82.239 115.308 82.871 115.475 83.434 115.809C83.997 116.142 84.426 116.608 84.721 117.204C85.016 117.801 85.164 118.477 85.164 119.234C85.164 120.001 85.009 120.687 84.698 121.292C84.387 121.897 83.947 122.355 83.377 122.666C82.807 122.977 82.192 123.133 81.533 123.133C80.818 123.133 80.179 122.961 79.617 122.617C79.054 122.273 78.628 121.804 78.337 121.209C78.047 120.613 77.902 119.984 77.902 119.321ZM78.938 119.336C78.938 120.247 79.184 120.965 79.676 121.489C80.168 122.013 80.785 122.276 81.528 122.276C82.284 122.276 82.907 122.011 83.395 121.481C83.883 120.952 84.128 120.2 84.128 119.227C84.128 118.611 84.023 118.074 83.815 117.615C83.606 117.156 83.3 116.8 82.898 116.547C82.496 116.294 82.044 116.168 81.544 116.168C80.833 116.168 80.22 116.411 79.708 116.898C79.194 117.386 78.938 118.198 78.938 119.336Z" fill="white"/>
<path d="M86.311 123.003V115.441H87.342L91.33 121.378V115.441H92.293V123.003H91.262L87.274 117.061V123.003H86.311V123.003Z" fill="white"/>
<path d="M93.47 120.574L94.418 120.492C94.463 120.87 94.567 121.18 94.731 121.423C94.895 121.665 95.15 121.861 95.495 122.011C95.84 122.161 96.229 122.235 96.66 122.235C97.043 122.235 97.382 122.179 97.675 122.065C97.968 121.951 98.187 121.796 98.33 121.598C98.473 121.4 98.545 121.185 98.545 120.951C98.545 120.714 98.476 120.507 98.338 120.329C98.2 120.152 97.972 120.003 97.654 119.883C97.45 119.804 97 119.681 96.302 119.514C95.605 119.347 95.116 119.19 94.836 119.042C94.473 118.853 94.203 118.618 94.025 118.338C93.847 118.058 93.758 117.744 93.758 117.396C93.758 117.014 93.867 116.658 94.084 116.326C94.302 115.994 94.619 115.742 95.037 115.57C95.455 115.398 95.919 115.312 96.43 115.312C96.993 115.312 97.489 115.402 97.919 115.583C98.349 115.763 98.68 116.029 98.911 116.38C99.142 116.731 99.266 117.128 99.284 117.572L98.321 117.644C98.269 117.166 98.094 116.805 97.795 116.561C97.496 116.317 97.055 116.195 96.471 116.195C95.863 116.195 95.421 116.306 95.142 116.528C94.864 116.75 94.725 117.017 94.725 117.33C94.725 117.602 94.823 117.825 95.02 118.001C95.213 118.176 95.718 118.356 96.535 118.54C97.352 118.724 97.912 118.885 98.216 119.022C98.658 119.225 98.984 119.482 99.195 119.793C99.405 120.104 99.511 120.463 99.511 120.868C99.511 121.271 99.395 121.649 99.164 122.006C98.933 122.362 98.6 122.639 98.167 122.836C97.734 123.034 97.246 123.132 96.704 123.132C96.017 123.132 95.441 123.032 94.977 122.833C94.513 122.634 94.148 122.333 93.884 121.933C93.623 121.533 93.484 121.079 93.47 120.574Z" fill="white"/>
<path d="M105.158 125.227C104.643 124.58 104.208 123.824 103.853 122.957C103.497 122.091 103.319 121.193 103.319 120.265C103.319 119.446 103.452 118.662 103.718 117.913C104.029 117.043 104.509 116.177 105.158 115.313H105.826C105.408 116.028 105.132 116.539 104.997 116.845C104.786 117.319 104.62 117.815 104.5 118.33C104.351 118.973 104.277 119.619 104.277 120.269C104.277 121.923 104.793 123.575 105.826 125.226H105.158V125.227Z" fill="white"/>
<path d="M106.932 123.003V115.441H109.797C110.301 115.441 110.686 115.465 110.952 115.513C111.325 115.575 111.637 115.692 111.889 115.866C112.141 116.04 112.344 116.283 112.498 116.596C112.652 116.909 112.729 117.253 112.729 117.628C112.729 118.271 112.523 118.815 112.113 119.26C111.702 119.705 110.96 119.928 109.886 119.928H107.938V123.002H106.932V123.003ZM107.937 119.037H109.9C110.549 119.037 111.01 118.917 111.283 118.676C111.556 118.435 111.692 118.097 111.692 117.66C111.692 117.344 111.612 117.073 111.451 116.848C111.29 116.623 111.079 116.474 110.816 116.402C110.647 116.357 110.334 116.335 109.879 116.335H107.937V119.037Z" fill="white"/>
<path d="M115.215 123.003L113.123 117.525H114.107L115.288 120.806C115.416 121.16 115.533 121.528 115.64 121.91C115.723 121.621 115.838 121.274 115.987 120.868L117.209 117.526H118.167L116.085 123.004H115.215V123.003Z" fill="white"/>
<path d="M121.027 122.173L121.162 122.993C120.9 123.048 120.665 123.075 120.458 123.075C120.119 123.075 119.857 123.022 119.671 122.915C119.484 122.809 119.353 122.668 119.277 122.495C119.201 122.321 119.163 121.956 119.163 121.399V118.247H118.48V117.525H119.163V116.169L120.09 115.612V117.525H121.027V118.247H120.09V121.45C120.09 121.715 120.107 121.885 120.139 121.961C120.172 122.037 120.225 122.097 120.299 122.142C120.373 122.187 120.48 122.209 120.618 122.209C120.721 122.209 120.858 122.197 121.027 122.173Z" fill="white"/>
<path d="M122.065 123.003V121.946H123.127V123.003H122.065Z" fill="white"/>
<path d="M125.221 125.227H124.553C125.585 123.576 126.102 121.924 126.102 120.27C126.102 119.624 126.028 118.982 125.879 118.346C125.762 117.83 125.598 117.335 125.387 116.861C125.252 116.552 124.974 116.036 124.553 115.314H125.221C125.87 116.177 126.35 117.044 126.661 117.914C126.927 118.664 127.06 119.448 127.06 120.266C127.06 121.194 126.881 122.092 126.524 122.958C126.166 123.824 125.732 124.58 125.221 125.227Z" fill="white"/>
<path d="M130.934 123.003V115.441H131.939V122.11H135.679V123.002H130.934V123.003Z" fill="white"/>
<path d="M138.812 122.173L138.947 122.993C138.685 123.048 138.45 123.075 138.243 123.075C137.904 123.075 137.642 123.022 137.456 122.915C137.269 122.809 137.138 122.668 137.062 122.495C136.986 122.321 136.948 121.956 136.948 121.399V118.247H136.265V117.525H136.948V116.169L137.875 115.612V117.525H138.812V118.247H137.875V121.45C137.875 121.715 137.892 121.885 137.924 121.961C137.957 122.037 138.01 122.097 138.084 122.142C138.158 122.187 138.265 122.209 138.403 122.209C138.507 122.209 138.643 122.197 138.812 122.173Z" fill="white"/>
<path d="M143.155 123.003V122.312C142.806 122.855 142.293 123.127 141.617 123.127C141.179 123.127 140.775 123.007 140.407 122.766C140.039 122.525 139.754 122.189 139.553 121.758C139.351 121.326 139.25 120.83 139.25 120.27C139.25 119.723 139.341 119.227 139.524 118.782C139.707 118.337 139.981 117.995 140.348 117.758C140.714 117.521 141.123 117.402 141.576 117.402C141.907 117.402 142.203 117.472 142.462 117.611C142.721 117.75 142.932 117.932 143.094 118.155V115.442H144.021V123.004H143.155V123.003ZM140.208 120.27C140.208 120.972 140.357 121.496 140.654 121.843C140.951 122.19 141.301 122.364 141.705 122.364C142.112 122.364 142.459 122.198 142.744 121.866C143.029 121.534 143.171 121.028 143.171 120.347C143.171 119.597 143.026 119.047 142.736 118.696C142.446 118.345 142.088 118.17 141.664 118.17C141.25 118.17 140.903 118.339 140.625 118.676C140.347 119.013 140.208 119.544 140.208 120.27Z" fill="white"/>
<path d="M145.771 123.003V121.946H146.833V123.003H145.771Z" fill="white"/>
<path fill-rule="evenodd" clip-rule="evenodd" d="M74.3671 95.276C74.2441 95.589 75.9421 98.448 73.4851 100.85C68.9731 105.242 57.9961 99.503 50.5361 95.09C50.9041 94.37 51.2641 93.562 51.6141 92.65L52.9541 88.785C74.3451 81.993 74.1551 60.524 63.3541 64.623C59.1541 66.232 56.3051 72.085 54.1381 80.083C53.3671 82.183 51.6691 89.377 49.4021 89.745C49.9271 89.879 50.3851 89.812 50.7871 89.577C50.5611 91.217 50.0361 92.82 49.2811 94.34C47.5121 93.276 46.0011 92.338 44.9111 91.711L47.2231 90.572C46.3291 90.572 44.2181 90.293 42.5431 90.449C39.7731 90.706 38.8791 93.186 42.4201 92.437C44.2631 92.057 44.1851 92.124 45.7711 93.018C46.8481 93.618 47.9001 94.266 48.9621 94.951C47.9471 96.809 46.5881 98.528 45.0011 100.011C46.8431 99.781 48.5871 98.575 50.1791 95.753C50.9591 96.273 51.7461 96.805 52.5631 97.364C55.5231 99.386 57.4441 100.603 60.7171 102.301C64.1021 104.066 72.2451 105.216 75.2271 102.234C78.3881 99.085 74.9931 93.645 74.3671 95.276ZM58.5041 72.129C62.3541 64.309 69.9001 62.244 68.6981 70.84C67.7601 77.634 59.0341 86.372 53.0871 87.715C54.4221 82.21 56.2431 76.716 58.5041 72.129Z" fill="#EB3728"/>
<path fill-rule="evenodd" clip-rule="evenodd" d="M100.651 76.219C101.31 75.381 101.545 74.331 101.377 73.102C100.45 74.085 99.389 74.934 98.138 75.537C95.055 77 94.999 76.096 91.715 78.765C87.515 82.172 83.806 86.372 80.522 91.198L82.756 82.697C83.594 79.893 83.046 78.609 81.136 78.821L78.12 79.692C86.475 80.385 68.089 99.888 68.994 90.159C69.206 87.97 70.413 85.244 72.256 82.351C72.636 81.748 73.775 79.961 72.424 79.514C72.033 79.38 71.441 79.994 70.659 81.324L65.8 88.417L68.079 86.741C66.794 89.221 66.37 91.053 66.683 92.326C67.532 95.778 71.665 93.745 73.553 92.505C75.888 90.952 77.965 88.584 79.853 85.613C79.283 88.249 76.189 95.834 80.344 95.063C80.378 92.963 84.153 87.992 90.487 81.022C91.28 80.218 92.095 79.525 92.911 78.967C96.473 76.543 98.774 78.588 100.651 76.219Z" fill="#EB3728"/>
<path fill-rule="evenodd" clip-rule="evenodd" d="M73.0941 77.85C74.3791 77.794 75.0821 76.219 75.3621 75.136C75.5071 74.577 75.4401 74.164 74.7251 74.499C74.2451 74.722 72.8041 75.638 72.2681 76.499C71.7871 77.27 72.2891 77.895 73.0941 77.85Z" fill="#EB3728"/>
<path fill-rule="evenodd" clip-rule="evenodd" d="M137.648 92.942L140.865 86.508C142.15 84.084 142.239 82.732 141.278 82.297C139.547 81.504 138.798 83.146 137.871 84.274C134.989 87.748 131.973 90.384 128.812 92.06C126.712 93.121 125.707 92.942 125.662 91.669C125.595 89.67 127.103 88.016 128.298 86.564C132.532 81.403 136.721 79.236 140.854 80.465C136.509 74.053 125.115 86.073 122.579 89.323C119.462 92.238 117.362 93.356 116.268 92.696C114.76 91.791 115.687 89.792 116.19 88.596L118.692 82.642C120.379 78.632 117.776 78.799 114.905 80.844C112.135 82.821 109.521 86.306 106.505 89.501C106.907 88.462 108.761 84.474 109.197 81.916C109.722 78.855 107.51 79.168 106.918 81.447C106.36 83 105.667 84.452 104.851 85.803C103.768 87.579 102.449 89.165 100.885 90.539C99.589 91.667 95.378 95.231 95.479 91.131C95.568 87.233 99.199 83.624 99.512 80.988C99.702 79.279 98.283 79.201 97.3 80.597C95.58 83.032 93.882 85.992 92.229 88.539L94.351 87.109C93.658 88.539 93.256 89.902 93.267 91.164C93.267 94.482 95.155 94.806 97.914 93.778C100.07 92.963 102.203 91.142 104.326 88.36C104.103 90.75 103.455 92.538 102.572 94.001C103.991 93.979 105.443 93.107 106.951 90.951C108.191 89.164 114.659 80.931 116.155 81.769C116.959 82.216 116.501 83.165 116.2 83.713C114.402 87.008 113.463 89.432 113.564 91.22C113.743 94.147 116.2 94.526 118.524 93.577C120.401 92.806 122.054 91.108 123.607 88.975C123.037 99.766 134.487 89.243 137.034 86.216C136.866 87.88 135.727 91.254 134.253 93.924C132.175 97.7 131.237 97.175 128.187 99.364C124.959 101.687 120.736 105.564 119.943 108.457C119.049 111.719 122.691 112.277 125.081 111.462C127.282 110.714 129.292 108.904 131.147 106.134C133.593 102.47 134.889 96.472 138.062 93.902C144.373 88.886 145.367 86.865 146.931 84.865C144.115 87.881 141.122 90.987 137.648 92.942ZM129.812 104.035C128.616 105.77 125.559 109.915 123.328 110.215C122.419 110.348 121.829 109.841 122.34 108.245C123.601 104.411 127.361 101.603 132.463 99.187C131.7 101.034 130.775 102.641 129.812 104.035Z" fill="#EB3728"/>
<path d="M145.233 76.22C147.002 76.23 148.412 77.655 148.401 79.42C148.39 81.157 146.955 82.57 145.211 82.558C143.436 82.546 142.034 81.092 142.056 79.332C142.077 77.625 143.512 76.21 145.233 76.22ZM142.442 79.389C142.437 80.906 143.681 82.157 145.193 82.173C146.733 82.189 148.002 80.951 148.012 79.42C148.021 77.868 146.785 76.613 145.247 76.607C143.697 76.601 142.448 77.841 142.442 79.389Z" fill="white"/>
<path d="M144.234 79.502C144.234 80.079 144.234 80.647 144.234 81.22C144.062 81.22 143.895 81.22 143.725 81.22C143.725 79.928 143.725 78.639 143.725 77.345C143.738 77.343 143.75 77.34 143.763 77.34C144.384 77.34 145.006 77.338 145.627 77.343C145.852 77.345 146.077 77.368 146.284 77.465C146.57 77.598 146.731 77.836 146.798 78.135C146.888 78.539 146.804 78.899 146.479 79.177C146.295 79.334 146.069 79.402 145.835 79.446C145.809 79.451 145.784 79.456 145.758 79.461C145.76 79.467 145.759 79.473 145.762 79.474C146.042 79.603 146.238 79.825 146.404 80.073C146.652 80.444 146.889 80.823 147.131 81.198C147.134 81.203 147.135 81.21 147.138 81.224C147.02 81.224 146.906 81.224 146.792 81.224C146.714 81.224 146.635 81.221 146.557 81.225C146.517 81.227 146.495 81.213 146.473 81.179C146.267 80.856 146.062 80.531 145.85 80.212C145.751 80.063 145.643 79.921 145.529 79.783C145.38 79.603 145.188 79.502 144.949 79.501C144.715 79.502 144.479 79.502 144.234 79.502ZM144.237 79.051C144.252 79.053 144.261 79.055 144.269 79.055C144.672 79.054 145.076 79.057 145.479 79.052C145.636 79.05 145.792 79.029 145.938 78.965C146.172 78.863 146.306 78.643 146.299 78.374C146.292 78.128 146.15 77.918 145.908 77.841C145.777 77.799 145.636 77.777 145.498 77.774C145.099 77.765 144.7 77.771 144.301 77.771C144.28 77.771 144.259 77.773 144.235 77.774C144.237 78.202 144.237 78.624 144.237 79.051Z" fill="white"/>
<path fill-rule="evenodd" clip-rule="evenodd" d="M96.087 53.123C96.165 54.792 98.121 54.675 100.573 54.427C107.714 52.898 111.16 50.088 114.823 45.09C117.904 40.115 119.449 36.917 118.991 32.151C118.642 28.55 117.198 25.701 114.606 23C112.728 21.052 110.322 19.616 107.589 18.739C118.153 24.715 119.224 37.972 110.779 46.689C110.19 47.232 99.743 54.722 96.087 53.123Z" fill="#AE6428"/>
<path fill-rule="evenodd" clip-rule="evenodd" d="M116.43 37.747C118.603 30.498 116.081 23.163 107.589 18.739V26.454L115.048 33.509H109.537C109.157 38.096 104.523 37.739 104.523 33.556L98.958 33.44L106.471 26.447C106.479 24.53 106.471 20.657 106.471 18.74C102.87 17.902 98.865 18.507 95.612 19.555C93.625 20.191 88.277 22.489 87.338 23.894C94.673 24.841 93.183 40.791 93.796 45.402C94.099 47.676 94.269 49.159 94.766 51.425C95.434 54.491 99.57 53.482 103.56 51.588C110.035 48.505 114.327 44.756 116.43 37.747Z" fill="#F69921"/>
<path fill-rule="evenodd" clip-rule="evenodd" d="M76.9 43.724C77.086 51.447 81.037 58.673 89.086 64.145C93.169 66.924 97.166 68.406 102.133 68.833L102.071 64.168C97.833 64.781 93.099 63.462 90.646 59.977C89.295 58.06 89.187 56.694 89.132 54.42C89.078 51.742 89.171 48.11 88.627 44.827C87.649 38.765 86.058 34.178 82.239 29.366C79.299 33.742 77.614 36.909 76.9 43.724Z" fill="#EB3728"/>
<path fill-rule="evenodd" clip-rule="evenodd" d="M107.497 51.99C114.506 47.806 126.04 43.825 126.746 53.154C131.97 45.33 126.148 30.436 119.163 24.552C115.725 21.657 111.813 19.833 107.59 18.739C111.238 20.097 114.265 22.154 116.182 25.026C122.228 34.099 115.74 46.371 107.497 51.99Z" fill="#066E81"/>
<path fill-rule="evenodd" clip-rule="evenodd" d="M115.049 48.482C121.305 47.939 125.271 65.348 105.176 64.176C105.176 65.728 105.176 67.281 105.176 68.833C113.683 67.49 120.303 64.114 124.425 58.005C126.233 55.319 128.453 50.825 125.55 48.101C123.036 45.75 117.82 47.186 115.049 48.482Z" fill="#EB3728"/>
</svg>
