<svg width="86" height="86" viewBox="0 0 86 86" fill="none" xmlns="http://www.w3.org/2000/svg">
<path d="M73.4681 12.4976C65.3836 4.44309 54.6337 0.00491422 43.1803 0C19.5789 0 0.3721 19.1162 0.362651 42.6127C0.359901 50.1234 2.33103 57.455 6.07762 63.9177L0.00317383 86L22.7013 80.0744C28.9551 83.47 35.9964 85.2593 43.1619 85.2622H43.1801H43.1803C66.7779 85.2622 85.9876 66.1426 85.9976 42.6472C86.0016 31.2597 81.5516 20.5526 73.4681 12.4976V12.4976ZM43.1803 78.0647H43.1664C36.7794 78.0614 30.5162 76.3542 25.0531 73.1267L23.7529 72.3594L10.2834 75.8754L13.8796 62.8052L13.0325 61.4653C9.46981 55.8254 7.58901 49.3078 7.59169 42.6154C7.59951 23.0859 23.5635 7.19772 43.1938 7.19772C52.6998 7.20165 61.6344 10.8907 68.3539 17.5853C75.0731 24.2799 78.7707 33.1794 78.7679 42.6442C78.7596 62.1744 62.7951 78.0647 43.1803 78.0647V78.0647Z" fill="#E0E0E0"/>
<path d="M1.96826 83.5497L7.76524 62.4761C4.18887 56.3086 2.30814 49.3114 2.31039 42.1452C2.31977 19.7224 20.6494 1.47998 43.1707 1.47998C54.1014 1.48489 64.3606 5.72011 72.074 13.4069C79.7892 21.0935 84.0354 31.3108 84.031 42.177C84.0216 64.6003 65.6909 82.8443 43.1724 82.8443C43.1707 82.8443 43.1735 82.8443 43.1724 82.8443H43.1542C36.316 82.8421 29.5968 81.1331 23.6291 77.895L1.96826 83.5497V83.5497Z" fill="url(#paint0_linear)"/>
<path fill-rule="evenodd" clip-rule="evenodd" d="M32.5991 24.5217C31.807 22.7682 30.9729 22.7331 30.2193 22.7025C29.6029 22.6761 28.8972 22.6778 28.1926 22.6778C27.4874 22.6778 26.3416 22.9416 25.3726 23.9952C24.403 25.0488 21.6707 27.5958 21.6707 32.7761C21.6707 37.9568 25.4608 42.9627 25.989 43.6658C26.5179 44.3678 33.3054 55.3382 44.0548 59.5586C52.9885 63.066 54.8065 62.3683 56.7456 62.1928C58.6847 62.0173 63.0025 59.6463 63.8839 57.1875C64.7654 54.7293 64.7654 52.6221 64.5009 52.1817C64.2365 51.7429 63.5314 51.4797 62.4737 50.9531C61.416 50.4266 56.2167 47.879 55.2472 47.528C54.2776 47.177 53.5725 47.0015 52.8673 48.0556C52.1622 49.1087 50.1366 51.4797 49.5196 52.1817C48.9026 52.8853 48.2856 52.9731 47.2279 52.4466C46.1702 51.9184 42.764 50.8077 38.7233 47.2208C35.5794 44.4302 33.4568 40.9837 32.8398 39.9296C32.2228 38.8765 32.7737 38.3061 33.3042 37.7812C33.7791 37.3095 34.3619 36.5521 34.8908 35.9372C35.4185 35.3224 35.5948 34.8836 35.9474 34.1816C36.2999 33.4784 36.1236 32.8637 35.8592 32.3371C35.5948 31.8106 33.5395 26.6037 32.5991 24.5217V24.5217Z" fill="white"/>
<path d="M73.118 12.3622C65.1262 4.40018 54.4997 0.0130411 43.1779 0.00805664C19.8473 0.00805664 0.861033 18.9048 0.851655 42.1316C0.848905 49.5562 2.7974 56.8035 6.50098 63.192L0.496338 85.0208L22.9339 79.1632C29.116 82.5197 36.0764 84.2886 43.1597 84.2913H43.1777H43.1779C66.5046 84.2913 85.4936 65.3913 85.5036 42.1655C85.5074 30.909 81.1086 20.3248 73.118 12.3622V12.3622ZM43.1779 77.1767H43.1641C36.8504 77.1734 30.659 75.4858 25.2587 72.2954L23.9734 71.5369L10.6585 75.0125L14.2134 62.0924L13.376 60.7678C9.85424 55.1927 7.99502 48.7499 7.99777 42.1344C8.00545 22.8291 23.7861 7.12329 43.1912 7.12329C52.5882 7.12715 61.42 10.7739 68.0626 17.3916C74.7046 24.0094 78.3597 32.8067 78.357 42.1629C78.3486 61.4687 62.5674 77.1767 43.1779 77.1767Z" fill="white"/>
<defs>
<linearGradient id="paint0_linear" x1="42.9997" y1="83.5497" x2="42.9997" y2="1.48012" gradientUnits="userSpaceOnUse">
<stop stop-color="#20B038"/>
<stop offset="1" stop-color="#60D66A"/>
</linearGradient>
</defs>
</svg>
